<svg width="1200" height="760" viewBox="0 0 1200 760" fill="none" xmlns="http://www.w3.org/2000/svg">
  <rect width="1200" height="760" rx="16" fill="#0B0C0F"/>
  <rect x="24" y="24" width="1152" height="44" rx="8" fill="#121418"/>
  <circle cx="48" cy="46" r="6" fill="#FF5F57"/>
  <circle cx="68" cy="46" r="6" fill="#FEBC2E"/>
  <circle cx="88" cy="46" r="6" fill="#28C840"/>
  <rect x="24" y="84" width="220" height="652" rx="8" fill="#101216"/>
  <rect x="260" y="84" width="916" height="300" rx="8" fill="#101216"/>
  <rect x="280" y="104" width="600" height="14" rx="4" fill="#1D2026"/>
  <rect x="280" y="130" width="480" height="10" rx="4" fill="#1A1C21"/>
  <rect x="280" y="152" width="520" height="10" rx="4" fill="#1A1C21"/>
  <rect x="260" y="400" width="916" height="336" rx="8" fill="#101216"/>
  <rect x="280" y="420" width="876" height="20" rx="4" fill="#151820"/>
  <rect x="280" y="456" width="160" height="12" rx="4" fill="#232735"/>
  <rect x="460" y="456" width="160" height="12" rx="4" fill="#232735"/>
  <rect x="640" y="456" width="160" height="12" rx="4" fill="#232735"/>
  <rect x="44" y="108" width="180" height="14" rx="4" fill="#1D2026"/>
  <rect x="44" y="134" width="140" height="10" rx="4" fill="#171A20"/>
  <rect x="44" y="156" width="160" height="10" rx="4" fill="#171A20"/>
  <rect x="44" y="178" width="120" height="10" rx="4" fill="#171A20"/>
  <rect x="24" y="24" width="1152" height="712" rx="16" stroke="#1A1C22" stroke-width="1"/>
</svg>
