<svg width="1200" height="760" viewBox="0 0 1200 760" fill="none" xmlns="http://www.w3.org/2000/svg">
  <rect width="1200" height="760" rx="20" fill="#0B0C0F"/>
  <rect x="24" y="24" width="1152" height="50" rx="10" fill="#121418"/>
  <circle cx="52" cy="49" r="8" fill="#FF5F57"/>
  <circle cx="76" cy="49" r="8" fill="#FEBC2E"/>
  <circle cx="100" cy="49" r="8" fill="#28C840"/>
  <rect x="140" y="38" width="150" height="22" rx="7" fill="#1D2026"/>
  <rect x="300" y="38" width="120" height="22" rx="7" fill="#1D2026"/>
  <rect x="24" y="92" width="270" height="644" rx="12" fill="#101216"/>
  <rect x="314" y="92" width="862" height="330" rx="12" fill="#101216"/>
  <rect x="338" y="116" width="814" height="18" rx="6" fill="#1D2026"/>
  <rect x="338" y="145" width="680" height="12" rx="6" fill="#1A1C21"/>
  <rect x="338" y="172" width="730" height="12" rx="6" fill="#1A1C21"/>
  <rect x="338" y="199" width="640" height="12" rx="6" fill="#1A1C21"/>
  <rect x="314" y="438" width="862" height="298" rx="12" fill="#101216"/>
  <rect x="338" y="462" width="814" height="24" rx="6" fill="#151820"/>
  <rect x="338" y="500" width="180" height="16" rx="6" fill="#232735"/>
  <rect x="530" y="500" width="180" height="16" rx="6" fill="#232735"/>
  <rect x="722" y="500" width="180" height="16" rx="6" fill="#232735"/>
  <rect x="914" y="500" width="180" height="16" rx="6" fill="#232735"/>
  <rect x="338" y="528" width="814" height="1" fill="#1E2230"/>
  <rect x="338" y="544" width="814" height="1" fill="#1E2230"/>
  <rect x="338" y="560" width="814" height="1" fill="#1E2230"/>
  <rect x="338" y="576" width="814" height="1" fill="#1E2230"/>
  <rect x="338" y="592" width="814" height="1" fill="#1E2230"/>
  <rect x="338" y="608" width="814" height="1" fill="#1E2230"/>
  <rect x="338" y="624" width="814" height="1" fill="#1E2230"/>
  <rect x="338" y="640" width="814" height="1" fill="#1E2230"/>
  <rect x="338" y="656" width="814" height="1" fill="#1E2230"/>
  <rect x="338" y="672" width="814" height="1" fill="#1E2230"/>
  <rect x="338" y="688" width="814" height="1" fill="#1E2230"/>
  <rect x="48" y="120" width="220" height="16" rx="6" fill="#1D2026"/>
  <rect x="48" y="148" width="170" height="12" rx="6" fill="#171A20"/>
  <rect x="48" y="170" width="190" height="12" rx="6" fill="#171A20"/>
  <rect x="48" y="192" width="150" height="12" rx="6" fill="#171A20"/>
  <rect x="48" y="220" width="200" height="12" rx="6" fill="#171A20"/>
  <rect x="48" y="242" width="175" height="12" rx="6" fill="#171A20"/>
  <rect x="48" y="264" width="155" height="12" rx="6" fill="#171A20"/>
  <rect x="48" y="286" width="210" height="12" rx="6" fill="#171A20"/>
  <rect x="48" y="308" width="140" height="12" rx="6" fill="#171A20"/>
  <rect x="48" y="330" width="190" height="12" rx="6" fill="#171A20"/>
  <rect x="24" y="24" width="1152" height="712" rx="20" stroke="#1A1C22" stroke-width="2"/>
</svg>
