<svg width="1200" height="760" viewBox="0 0 1200 760" fill="none" xmlns="http://www.w3.org/2000/svg">
  <rect width="1200" height="760" rx="20" fill="#0B0C0F"/>
  <rect x="24" y="24" width="1152" height="50" rx="10" fill="#121418"/>
  <circle cx="52" cy="49" r="8" fill="#FF5F57"/>
  <circle cx="76" cy="49" r="8" fill="#FEBC2E"/>
  <circle cx="100" cy="49" r="8" fill="#28C840"/>
  <rect x="24" y="92" width="1152" height="350" rx="12" fill="#101216"/>
  <rect x="48" y="116" width="1104" height="26" rx="8" fill="#151820"/>
  <rect x="48" y="156" width="1104" height="250" rx="8" fill="#0F1115"/>
  <rect x="48" y="156" width="1104" height="32" rx="8" fill="#151820"/>
  <rect x="64" y="168" width="180" height="10" rx="4" fill="#2A2F3A"/>
  <rect x="256" y="168" width="220" height="10" rx="4" fill="#2A2F3A"/>
  <rect x="488" y="168" width="160" height="10" rx="4" fill="#2A2F3A"/>
  <rect x="660" y="168" width="180" height="10" rx="4" fill="#2A2F3A"/>
  <rect x="852" y="168" width="140" height="10" rx="4" fill="#2A2F3A"/>
  <rect x="1004" y="168" width="132" height="10" rx="4" fill="#2A2F3A"/>
  <rect x="24" y="458" width="1152" height="278" rx="12" fill="#101216"/>
  <rect x="48" y="482" width="1104" height="28" rx="8" fill="#151820"/>
  <rect x="64" y="491" width="180" height="10" rx="4" fill="#2A2F3A"/>
  <rect x="1040" y="489" width="96" height="14" rx="5" fill="#0A84FF"/>
  <rect x="48" y="522" width="1104" height="190" rx="8" fill="#0F1115"/>
  <rect x="48" y="522" width="320" height="190" rx="8" fill="#131720"/>
  <rect x="64" y="540" width="288" height="12" rx="5" fill="#2A2F3A"/>
  <rect x="64" y="566" width="240" height="10" rx="5" fill="#1E2230"/>
  <rect x="64" y="590" width="260" height="10" rx="5" fill="#1E2230"/>
  <rect x="64" y="614" width="200" height="10" rx="5" fill="#1E2230"/>
  <rect x="64" y="638" width="228" height="10" rx="5" fill="#1E2230"/>
  <rect x="64" y="662" width="190" height="10" rx="5" fill="#1E2230"/>
  <rect x="384" y="540" width="752" height="10" rx="5" fill="#1E2230"/>
  <rect x="384" y="566" width="700" height="10" rx="5" fill="#1E2230"/>
  <rect x="384" y="592" width="640" height="10" rx="5" fill="#1E2230"/>
  <rect x="384" y="618" width="720" height="10" rx="5" fill="#1E2230"/>
  <rect x="384" y="644" width="668" height="10" rx="5" fill="#1E2230"/>
  <rect x="384" y="670" width="730" height="10" rx="5" fill="#1E2230"/>
  <rect x="24" y="24" width="1152" height="712" rx="20" stroke="#1A1C22" stroke-width="2"/>
</svg>
