<svg width="1200" height="760" viewBox="0 0 1200 760" fill="none" xmlns="http://www.w3.org/2000/svg">
  <rect width="1200" height="760" rx="16" fill="#0B0C0F"/>
  <rect x="24" y="24" width="1152" height="44" rx="8" fill="#121418"/>
  <circle cx="48" cy="46" r="6" fill="#FF5F57"/>
  <circle cx="68" cy="46" r="6" fill="#FEBC2E"/>
  <circle cx="88" cy="46" r="6" fill="#28C840"/>
  <rect x="24" y="84" width="1152" height="300" rx="8" fill="#101216"/>
  <rect x="44" y="104" width="1112" height="22" rx="6" fill="#151820"/>
  <rect x="44" y="140" width="1112" height="200" rx="6" fill="#0F1115"/>
  <rect x="44" y="140" width="1112" height="28" rx="6" fill="#151820"/>
  <rect x="60" y="150" width="160" height="8" rx="3" fill="#2A2F3A"/>
  <rect x="240" y="150" width="180" height="8" rx="3" fill="#2A2F3A"/>
  <rect x="440" y="150" width="140" height="8" rx="3" fill="#2A2F3A"/>
  <rect x="600" y="150" width="160" height="8" rx="3" fill="#2A2F3A"/>
  <rect x="24" y="400" width="1152" height="336" rx="8" fill="#101216"/>
  <rect x="44" y="420" width="1112" height="24" rx="6" fill="#151820"/>
  <rect x="60" y="428" width="160" height="8" rx="3" fill="#2A2F3A"/>
  <rect x="1064" y="426" width="76" height="12" rx="4" fill="#3b82f6"/>
  <rect x="44" y="456" width="280" height="256" rx="6" fill="#131720"/>
  <rect x="60" y="472" width="248" height="10" rx="4" fill="#2A2F3A"/>
  <rect x="60" y="494" width="200" height="8" rx="4" fill="#1E2230"/>
  <rect x="60" y="514" width="220" height="8" rx="4" fill="#1E2230"/>
  <rect x="60" y="534" width="180" height="8" rx="4" fill="#1E2230"/>
  <rect x="340" y="472" width="600" height="8" rx="4" fill="#1E2230"/>
  <rect x="340" y="494" width="540" height="8" rx="4" fill="#1E2230"/>
  <rect x="340" y="516" width="580" height="8" rx="4" fill="#1E2230"/>
  <rect x="24" y="24" width="1152" height="712" rx="16" stroke="#1A1C22" stroke-width="1"/>
</svg>
