<svg width="1200" height="760" viewBox="0 0 1200 760" fill="none" xmlns="http://www.w3.org/2000/svg">
  <rect width="1200" height="760" rx="20" fill="#0B0C0F"/>
  <rect x="24" y="24" width="1152" height="50" rx="10" fill="#121418"/>
  <circle cx="52" cy="49" r="8" fill="#FF5F57"/>
  <circle cx="76" cy="49" r="8" fill="#FEBC2E"/>
  <circle cx="100" cy="49" r="8" fill="#28C840"/>
  <rect x="24" y="92" width="230" height="644" rx="12" fill="#101216"/>
  <rect x="270" y="92" width="906" height="38" rx="10" fill="#11141A"/>
  <rect x="284" y="104" width="250" height="14" rx="5" fill="#1D2026"/>
  <rect x="1030" y="103" width="130" height="16" rx="6" fill="#0A84FF"/>
  <rect x="270" y="138" width="906" height="34" rx="10" fill="#101216"/>
  <rect x="284" y="149" width="320" height="12" rx="5" fill="#1A1C21"/>
  <rect x="270" y="178" width="906" height="558" rx="12" fill="#101216"/>
  <rect x="270" y="178" width="906" height="34" rx="10" fill="#151820"/>
  <rect x="284" y="190" width="20" height="10" rx="3" fill="#2A2F3A"/>
  <rect x="318" y="190" width="160" height="10" rx="3" fill="#2A2F3A"/>
  <rect x="492" y="190" width="160" height="10" rx="3" fill="#2A2F3A"/>
  <rect x="666" y="190" width="160" height="10" rx="3" fill="#2A2F3A"/>
  <rect x="840" y="190" width="160" height="10" rx="3" fill="#2A2F3A"/>
  <rect x="1014" y="190" width="140" height="10" rx="3" fill="#2A2F3A"/>
  <rect x="270" y="212" width="906" height="1" fill="#1E2230"/>
  <rect x="270" y="240" width="906" height="28" fill="#11151E"/>
  <rect x="270" y="268" width="906" height="28" fill="#101216"/>
  <rect x="270" y="296" width="906" height="28" fill="#11151E"/>
  <rect x="270" y="324" width="906" height="28" fill="#101216"/>
  <rect x="270" y="352" width="906" height="28" fill="#11151E"/>
  <rect x="270" y="380" width="906" height="28" fill="#101216"/>
  <rect x="270" y="408" width="906" height="28" fill="#11151E"/>
  <rect x="270" y="436" width="906" height="28" fill="#101216"/>
  <rect x="270" y="464" width="906" height="28" fill="#11151E"/>
  <rect x="270" y="492" width="906" height="28" fill="#101216"/>
  <rect x="270" y="520" width="906" height="28" fill="#11151E"/>
  <rect x="270" y="548" width="906" height="28" fill="#101216"/>
  <rect x="270" y="576" width="906" height="28" fill="#11151E"/>
  <rect x="270" y="604" width="906" height="28" fill="#101216"/>
  <rect x="270" y="632" width="906" height="28" fill="#11151E"/>
  <rect x="270" y="660" width="906" height="28" fill="#101216"/>
  <rect x="48" y="120" width="180" height="14" rx="5" fill="#1C2028"/>
  <rect x="48" y="150" width="130" height="10" rx="5" fill="#171A20"/>
  <rect x="48" y="172" width="145" height="10" rx="5" fill="#171A20"/>
  <rect x="48" y="194" width="120" height="10" rx="5" fill="#171A20"/>
  <rect x="48" y="216" width="155" height="10" rx="5" fill="#171A20"/>
  <rect x="48" y="238" width="110" height="10" rx="5" fill="#171A20"/>
  <rect x="48" y="260" width="170" height="10" rx="5" fill="#171A20"/>
  <rect x="48" y="282" width="125" height="10" rx="5" fill="#171A20"/>
  <rect x="48" y="304" width="140" height="10" rx="5" fill="#171A20"/>
  <rect x="48" y="326" width="155" height="10" rx="5" fill="#171A20"/>
  <rect x="24" y="24" width="1152" height="712" rx="20" stroke="#1A1C22" stroke-width="2"/>
</svg>
