<svg width="1200" height="760" viewBox="0 0 1200 760" fill="none" xmlns="http://www.w3.org/2000/svg">
  <rect width="1200" height="760" rx="16" fill="#0B0C0F"/>
  <rect x="24" y="24" width="1152" height="44" rx="8" fill="#121418"/>
  <circle cx="48" cy="46" r="6" fill="#FF5F57"/>
  <circle cx="68" cy="46" r="6" fill="#FEBC2E"/>
  <circle cx="88" cy="46" r="6" fill="#28C840"/>
  <rect x="24" y="84" width="200" height="652" rx="8" fill="#101216"/>
  <rect x="240" y="84" width="936" height="32" rx="8" fill="#11141A"/>
  <rect x="256" y="94" width="200" height="12" rx="4" fill="#1D2026"/>
  <rect x="1060" y="93" width="100" height="14" rx="4" fill="#3b82f6"/>
  <rect x="240" y="124" width="936" height="612" rx="8" fill="#101216"/>
  <rect x="240" y="124" width="936" height="28" rx="6" fill="#151820"/>
  <rect x="256" y="134" width="140" height="8" rx="2" fill="#2A2F3A"/>
  <rect x="420" y="134" width="140" height="8" rx="2" fill="#2A2F3A"/>
  <rect x="584" y="134" width="140" height="8" rx="2" fill="#2A2F3A"/>
  <rect x="748" y="134" width="140" height="8" rx="2" fill="#2A2F3A"/>
  <rect x="240" y="152" width="936" height="1" fill="#1E2230"/>
  <rect x="240" y="180" width="936" height="24" fill="#11151E"/>
  <rect x="240" y="204" width="936" height="24" fill="#101216"/>
  <rect x="240" y="228" width="936" height="24" fill="#11151E"/>
  <rect x="240" y="252" width="936" height="24" fill="#101216"/>
  <rect x="240" y="276" width="936" height="24" fill="#11151E"/>
  <rect x="44" y="108" width="160" height="12" rx="4" fill="#1C2028"/>
  <rect x="44" y="132" width="120" height="8" rx="4" fill="#171A20"/>
  <rect x="44" y="150" width="130" height="8" rx="4" fill="#171A20"/>
  <rect x="44" y="168" width="100" height="8" rx="4" fill="#171A20"/>
  <rect x="24" y="24" width="1152" height="712" rx="16" stroke="#1A1C22" stroke-width="1"/>
</svg>
